# xmcd CD database file
#
# Track frame offsets:
#	150
#	26875
#	108563
#	201898
#	232113
#
# Disc length: 4163 seconds
#
# Revision: 0
# Processed by: cddbd v1.5.2PL0 Copyright (c) Steve Scherf et al.
# Submitted via: CDex 1.70beta3
#
DISCID=44104105
DTITLE=Lol Coxhill - More Together than Alone
DYEAR=2007
DGENRE=Jazz
TTITLE0=Together with HD
TTITLE1=Together with JR
TTITLE2=Alone at the Vortex
TTITLE3=Together with HL
TTITLE4=Together with PT
EXTD=YEAR: 2007
EXTT0=
EXTT1=
EXTT2=
EXTT3=
EXTT4=
PLAYORDER=
